<svg width="40" height="40" viewBox="0 0 40 40" fill="none" xmlns="http://www.w3.org/2000/svg">
  <path d="M20 25.8333C22.7614 25.8333 25 23.5947 25 20.8333C25 18.0719 22.7614 15.8333 20 15.8333C17.2386 15.8333 15 18.0719 15 20.8333C15 23.5947 17.2386 25.8333 20 25.8333Z" stroke="white" stroke-width="2" stroke-linecap="round" stroke-linejoin="round"/>
  <path d="M10 31.6667H30C31.3807 31.6667 32.5 30.5474 32.5 29.1667V14.1667C32.5 12.786 31.3807 11.6667 30 11.6667H25.8333L23.3333 8.33334H16.6667L14.1667 11.6667H10C8.61929 11.6667 7.5 12.786 7.5 14.1667V29.1667C7.5 30.5474 8.61929 31.6667 10 31.6667Z" stroke="white" stroke-width="2" stroke-linecap="round" stroke-linejoin="round"/>
</svg>